<svg xmlns="http://www.w3.org/2000/svg" viewBox="0 0 192 192">
  <rect width="192" height="192" rx="32" fill="#f59e0b"/>
  <circle cx="96" cy="80" r="28" fill="#fff700"/>
  <circle cx="96" cy="80" r="20" fill="#fbbf24"/>
  <!-- Sun rays -->
  <line x1="96" y1="38" x2="96" y2="28" stroke="#fff700" stroke-width="5" stroke-linecap="round"/>
  <line x1="96" y1="122" x2="96" y2="132" stroke="#fff700" stroke-width="5" stroke-linecap="round"/>
  <line x1="54" y1="80" x2="44" y2="80" stroke="#fff700" stroke-width="5" stroke-linecap="round"/>
  <line x1="138" y1="80" x2="148" y2="80" stroke="#fff700" stroke-width="5" stroke-linecap="round"/>
  <line x1="67" y1="51" x2="60" y2="44" stroke="#fff700" stroke-width="5" stroke-linecap="round"/>
  <line x1="125" y1="109" x2="132" y2="116" stroke="#fff700" stroke-width="5" stroke-linecap="round"/>
  <line x1="125" y1="51" x2="132" y2="44" stroke="#fff700" stroke-width="5" stroke-linecap="round"/>
  <line x1="67" y1="109" x2="60" y2="116" stroke="#fff700" stroke-width="5" stroke-linecap="round"/>
  <!-- Cloud -->
  <ellipse cx="96" cy="128" rx="36" ry="18" fill="white" opacity="0.9"/>
  <ellipse cx="76" cy="128" rx="22" ry="16" fill="white" opacity="0.9"/>
  <ellipse cx="116" cy="130" rx="20" ry="14" fill="white" opacity="0.9"/>
  <!-- Rain drops -->
  <line x1="80" y1="150" x2="76" y2="162" stroke="#60a5fa" stroke-width="3" stroke-linecap="round"/>
  <line x1="96" y1="152" x2="92" y2="164" stroke="#60a5fa" stroke-width="3" stroke-linecap="round"/>
  <line x1="112" y1="150" x2="108" y2="162" stroke="#60a5fa" stroke-width="3" stroke-linecap="round"/>
</svg>
